<mxfile host="app.diagrams.net" modified="2024-01-16T08:12:36.943Z" agent="Mozilla/5.0 (Macintosh; Intel Mac OS X 10_15_7) AppleWebKit/537.36 (KHTML, like Gecko) Chrome/120.0.0.0 Safari/537.36" version="22.1.18" etag="5pyi0Cvjg-CnBpUMMQDw" type="github">
  <diagram name="第 1 页" id="MGYCco49DNWTYLiqgm-L">
    <mxGraphModel>
      <root>
        <mxCell id="0" />
        <mxCell id="1" parent="0" />
      </root>
    </mxGraphModel>
  </diagram>
</mxfile>
